<?xml version="1.0" encoding="UTF-8" standalone="no"?>
<svg
   width="32"
   height="32"
   viewBox="0 0 32 32"
   xml:space="preserve"
   version="1.1"
   id="svg1"
   xmlns="http://www.w3.org/2000/svg"
   xmlns:svg="http://www.w3.org/2000/svg"><defs
     id="defs1" /><path
     id="path2"
     style="font-variation-settings:normal;opacity:1;vector-effect:none;fill:#ffb300;fill-opacity:1;stroke:none;stroke-width:0.999992;stroke-linecap:butt;stroke-linejoin:miter;stroke-miterlimit:4;stroke-dasharray:none;stroke-dashoffset:0;stroke-opacity:1;-inkscape-stroke:none;paint-order:fill markers stroke;stop-color:#000000;stop-opacity:1"
     d="M 16 0 A 16 16 0 0 0 1.2363281 9.9121094 C 2.4128801 8.7273955 3.9893552 8.0083503 5.4941406 8 C 7.5106982 7.988975 8.5538079 9.4269464 8.1699219 11.820312 C 8.0901379 12.317725 8.0824201 12.708423 8.1113281 12.730469 C 8.1402351 12.755269 8.891025 12.056965 9.6738281 11.234375 C 11.661478 9.1468974 13.094481 8.3086207 14.886719 8.3554688 C 17.541546 8.4271217 18.294822 10.886716 18.490234 11.869141 L 18.755859 13.214844 L 19.976562 11.84375 C 22.253284 9.2822826 24.397045 8.3877069 25.568359 8.3105469 C 26.739673 8.2333869 27.494617 8.550204 28.283203 9.53125 C 30.214195 11.932885 29.929853 15.230701 27.421875 19.179688 C 26.321093 20.911676 26.091239 21.48127 26.484375 21.478516 C 27.124956 21.588743 29.686146 21.197061 30.599609 20.845703 C 30.917103 20.724367 31.154737 20.596214 31.357422 20.478516 A 16 16 0 0 0 32 16 A 16 16 0 0 0 16 0 z M 3.5585938 10.533203 C 2.9087333 10.525501 2.144379 10.765343 1.3183594 11.267578 C 1.0323961 11.441448 0.80825262 11.558294 0.61523438 11.648438 A 16 16 0 0 0 0 16 A 16 16 0 0 0 2.1035156 23.853516 C 2.1787437 23.627078 2.608302 22.794779 3.1445312 21.845703 C 4.5355397 19.382068 5.886164 14.296093 5.6132812 12.558594 C 5.4065957 11.244447 4.6416944 10.54604 3.5585938 10.533203 z M 23.560547 10.908203 C 21.83306 10.908203 20.628123 12.113701 18.484375 15.988281 C 17.389374 17.965529 16.292847 19.620295 16.167969 19.824219 C 15.792177 20.440129 16.305067 21.103598 21.605469 21.244141 C 23.551493 21.295121 24.37248 20.965825 25.054688 20.486328 C 26.111531 19.742275 27.160156 17.358981 27.160156 15.697266 C 27.160156 13.212959 25.427945 10.908203 23.560547 10.908203 z M 12.689453 10.966797 C 12.389934 10.956573 12.074986 10.98548 11.748047 11.058594 C 10.50273 11.336925 8.6624189 13.59788 7.1210938 16.742188 C 6.4828254 18.045655 5.6940561 19.645139 5.3691406 20.296875 C 5.0430688 20.948608 4.8913397 21.479319 5.03125 21.476562 C 5.1711603 21.476562 6.870226 21.472211 8.8046875 21.279297 C 14.965363 20.66201 14.797573 20.562733 15.515625 18.794922 C 17.108406 14.872762 15.584802 11.06563 12.689453 10.966797 z M 30.822266 21.929688 C 30.216976 22.531165 29.25005 23.225438 27.632812 23.589844 C 25.996672 23.957737 24.12986 23.950746 18.638672 23.603516 C 12.043234 23.187401 8.7956161 23.065157 3.6328125 23.880859 C 2.9649269 23.986116 2.3963215 24.022219 2.1757812 23.984375 A 16 16 0 0 0 16 32 A 16 16 0 0 0 30.822266 21.929688 z " /></svg>
